<svg xmlns="http://www.w3.org/2000/svg" width="256" height="256" viewBox="0 0 100 100">
  <rect width="100" height="100" rx="20" fill="#7d6ee7"></rect>
  <path
    d="M5.62 25.74L45.80 25.74L45.80 35.05L31.17 35.05L31.17 74.25L20.25 74.25L20.25 35.05L5.62 35.05L5.62 25.74ZM94.38 74.25L81.43 74.25Q79.96 71.88 77.97 69.11Q75.97 66.34 73.63 63.58Q71.28 60.81 68.76 58.26Q66.24 55.70 63.72 53.74L63.72 53.74L63.72 74.25L52.80 74.25L52.80 25.74L63.72 25.74L63.72 44.08Q67.99 39.60 72.30 34.74Q76.60 29.87 80.31 25.74L80.31 25.74L93.26 25.74Q88.29 31.62 83.28 37.08Q78.28 42.54 72.75 48.07L72.75 48.07Q78.56 52.90 83.99 59.55Q89.41 66.20 94.38 74.25L94.38 74.25Z"
    fill="#fff"></path>
</svg>
