<?xml version="1.0" standalone="no"?>
<!DOCTYPE svg PUBLIC "-//W3C//DTD SVG 20010904//EN"
 "http://www.w3.org/TR/2001/REC-SVG-20010904/DTD/svg10.dtd">
<svg version="1.0" xmlns="http://www.w3.org/2000/svg"
 width="700.000000pt" height="700.000000pt" viewBox="0 0 700.000000 700.000000"
 preserveAspectRatio="xMidYMid meet">
<metadata>
Created by potrace 1.14, written by Peter Selinger 2001-2017
</metadata>
<g transform="translate(0.000000,700.000000) scale(0.100000,-0.100000)"
fill="#000000" stroke="none">
<path d="M1255 6993 c-138 -12 -350 -75 -485 -143 -386 -196 -644 -533 -742
-971 l-23 -104 0 -2275 0 -2275 23 -104 c128 -568 527 -968 1095 -1093 l102
-23 2275 0 2275 0 102 23 c566 125 970 529 1095 1095 l23 102 0 2275 0 2275
-23 102 c-125 566 -522 964 -1090 1095 l-97 22 -2245 2 c-1235 0 -2263 -1
-2285 -3z m1953 -2120 l2 -323 -515 0 -515 0 0 -1375 0 -1375 -380 0 -380 0
-2 1373 -3 1372 -512 3 -513 2 0 325 0 325 1408 -2 1407 -3 3 -322z m1252
-315 l1 -643 75 80 c157 166 480 522 778 858 l309 347 448 0 c247 0 449 -3
449 -6 0 -8 -192 -232 -421 -490 -270 -303 -531 -584 -787 -845 l-216 -221 84
-76 c411 -369 790 -810 1162 -1352 92 -134 247 -375 255 -397 4 -11 -76 -13
-444 -13 l-450 0 -98 148 c-301 453 -712 928 -1050 1213 -45 38 -85 69 -89 69
-3 0 -6 -322 -6 -715 l0 -715 -380 0 -380 0 0 1700 0 1700 380 0 380 0 0 -642z"/>
</g>
</svg>
